<?xml version="1.0" standalone="no"?>
<!DOCTYPE svg PUBLIC "-//W3C//DTD SVG 1.1//EN"
 "http://www.w3.org/Graphics/SVG/1.1/DTD/svg11.dtd">
<!-- Created with svg_stack (http://github.com/astraw/svg_stack) -->
<svg xmlns="http://www.w3.org/2000/svg" xmlns:sodipodi="http://sodipodi.sourceforge.net/DTD/sodipodi-0.dtd" version="1.1" width="512.0" height="512.0">
  <defs/>
  <g id="id0:id0" transform="matrix(1.25,0,0,1.25,0.0,0.0)"><g transform="translate(0.000000,409.600000) scale(0.040000,-0.040000)" fill="#2675c0" stroke="none">
<path d="M0 5120 l0 -5120 5120 0 5120 0 0 5120 0 5120 -5120 0 -5120 0 0 -5120z m5321 2346 c229 -36 345 -71 544 -167 437 -211 804 -648 933 -1114 53 -187 65 -279 64 -495 0 -188 -3 -224 -41 -410 -26 -125 -116 -350 -197 -490 -163 -280 -435 -534 -729 -680 -138 -69 -348 -146 -366 -135 -5 4 -9 122 -9 281 l0 274 28 11 c68 25 217 107 279 153 252 188 408 438 485 776 18 83 15 367 -5 463 -54 250 -166 457 -341 633 -50 50 -122 114 -160 141 -116 85 -310 174 -441 202 -27 6 -71 15 -97 21 -61 13 -322 13 -390 0 -206 -41 -349 -97 -493 -193 -120 -80 -237 -191 -317 -299 l-43 -58 -302 0 c-167 0 -303 4 -303 8 0 4 4 12 8 18 5 5 15 25 22 44 34 85 140 253 231 365 288 355 677 575 1159 653 91 15 377 14 481 -2z m362 -1452 c7 -7 -26 -68 -83 -154 -21 -30 -55 -84 -77 -120 -22 -36 -77 -123 -123 -195 -46 -71 -104 -164 -130 -205 -26 -41 -75 -119 -109 -172 -33 -53 -61 -99 -61 -102 0 -3 95 -6 210 -6 l210 0 0 -160 0 -160 -308 0 -309 0 -68 -107 c-38 -60 -98 -155 -135 -213 -37 -58 -77 -122 -89 -142 l-23 -38 -289 0 c-181 0 -289 4 -289 10 0 9 57 102 233 375 49 77 121 190 160 250 38 61 78 122 88 137 11 15 19 32 19 38 0 6 -74 10 -220 10 l-220 0 0 160 0 160 320 0 c292 0 321 2 336 18 26 28 174 266 174 280 0 9 -90 12 -415 12 l-415 0 0 159 c0 118 3 161 13 164 18 8 1593 8 1600 1z m11 -2574 c155 -58 237 -228 192 -397 -24 -90 -71 -151 -151 -199 -62 -36 -178 -44 -259 -19 -71 22 -144 86 -177 152 -20 41 -23 63 -23 153 0 91 3 112 24 155 72 146 240 212 394 155z m687 9 c59 -19 93 -37 123 -65 l28 -27 -40 -40 -40 -40 -30 21 c-96 69 -224 45 -279 -53 -18 -32 -23 -55 -22 -115 1 -85 14 -117 71 -163 47 -38 135 -48 187 -20 36 19 78 84 66 103 -3 5 -33 10 -66 10 l-59 0 0 55 0 55 115 2 c63 0 121 1 128 2 8 1 13 -24 15 -86 3 -101 -17 -157 -74 -208 -59 -51 -99 -64 -209 -64 -86 0 -106 3 -143 22 -68 36 -126 101 -152 168 -32 85 -26 206 13 286 33 67 93 121 164 148 55 21 154 25 204 9z m684 -2 c59 -19 96 -41 137 -84 58 -60 80 -122 80 -229 1 -81 -2 -97 -31 -157 -32 -67 -57 -93 -136 -138 -35 -20 -54 -23 -140 -23 -84 0 -107 3 -148 23 -103 51 -167 164 -167 296 0 74 5 92 43 174 56 116 226 181 362 138z m-3741 -28 c28 -13 55 -36 72 -62 23 -35 27 -52 28 -113 0 -64 -3 -75 -28 -109 -16 -21 -42 -45 -57 -54 -37 -20 -36 -30 4 -83 43 -56 117 -165 117 -172 0 -4 -33 -6 -74 -6 l-73 0 -73 111 c-65 97 -76 110 -99 107 -26 -3 -26 -3 -29 -110 l-3 -108 -64 0 -65 0 0 310 0 310 150 0 c131 0 156 -3 194 -21z m584 -11 c8 -18 17 -42 22 -53 4 -11 15 -37 24 -57 9 -21 22 -53 30 -70 7 -18 23 -54 35 -80 11 -26 21 -50 21 -53 0 -3 9 -27 21 -53 12 -26 25 -56 30 -67 48 -111 59 -139 59 -146 0 -14 -126 -11 -137 4 -5 6 -16 28 -23 47 -26 68 -31 70 -160 70 -129 0 -134 -2 -160 -70 -7 -19 -18 -41 -23 -47 -11 -15 -137 -18 -137 -4 0 8 17 49 61 147 10 22 27 65 39 94 12 29 30 72 40 95 10 23 29 66 40 96 12 29 32 77 46 107 13 29 24 57 24 62 0 6 30 10 68 10 66 0 67 0 80 -32z m690 13 c72 -37 102 -89 102 -176 0 -36 -6 -75 -12 -88 -20 -34 -60 -77 -74 -77 -6 0 -16 -6 -22 -13 -8 -9 9 -40 68 -122 44 -61 79 -113 80 -117 0 -5 -33 -8 -74 -8 l-73 0 -78 110 c-61 87 -82 110 -101 110 -23 0 -23 -2 -26 -107 l-3 -108 -65 0 -65 0 -3 308 -2 307 155 0 c133 0 161 -3 193 -19z m395 -231 l2 -245 110 -5 110 -5 0 -55 0 -55 -177 -3 -178 -2 0 310 0 311 66 -3 66 -3 1 -245z m-1883 -705 c19 -23 5 -29 -30 -15 -25 10 -34 10 -55 -4 -14 -9 -25 -20 -25 -25 0 -13 34 -39 72 -55 67 -29 86 -79 43 -121 -41 -42 -145 -26 -145 22 0 14 3 14 25 -1 41 -27 100 -19 105 14 5 33 -2 41 -54 64 -49 22 -76 48 -76 74 0 5 9 21 21 36 16 21 29 26 64 26 26 0 47 -6 55 -15z m210 -116 c0 -100 -3 -130 -12 -127 -9 3 -14 41 -16 131 -2 109 0 127 13 127 13 0 15 -20 15 -131z m255 41 c33 -50 63 -90 67 -90 5 0 8 41 8 90 0 73 3 90 15 90 13 0 15 -21 15 -130 0 -97 -3 -130 -12 -130 -7 0 -42 44 -78 97 l-65 98 -5 -94 c-7 -141 -26 -129 -33 21 -3 67 -3 126 -1 130 13 20 34 1 89 -82z m409 69 c20 -16 26 -29 26 -59 0 -49 -35 -80 -91 -80 l-38 0 -3 -47 c-2 -27 -7 -47 -13 -46 -6 2 -11 55 -13 128 l-3 125 54 0 c40 0 61 -6 81 -21z m310 12 c7 -11 -17 -21 -49 -21 -24 0 -24 -2 -27 -110 -4 -143 -22 -151 -26 -11 -3 104 -13 137 -39 127 -17 -7 -44 4 -37 15 3 5 43 9 89 9 46 0 86 -4 89 -9z m181 -122 c0 -104 -2 -124 -15 -124 -12 0 -16 21 -18 114 -3 122 1 145 21 139 9 -4 12 -38 12 -129z m310 64 c33 -83 54 -132 66 -155 13 -25 11 -38 -5 -38 -7 0 -19 14 -26 30 -7 17 -15 30 -19 31 -112 11 -107 12 -129 -26 -19 -31 -42 -47 -42 -28 0 4 18 51 40 104 22 54 45 110 50 124 16 42 36 29 65 -42z m370 42 c33 -32 33 -74 0 -105 -14 -13 -25 -27 -25 -32 0 -5 11 -26 25 -46 29 -42 31 -52 11 -52 -8 0 -28 23 -46 50 -24 37 -38 50 -56 50 -22 0 -24 -4 -24 -44 0 -40 -13 -66 -26 -53 -4 4 -9 226 -5 250 1 4 28 7 61 7 51 0 65 -4 85 -25z m332 13 c-2 -7 -17 -13 -33 -13 l-29 0 -5 -115 c-4 -93 -8 -115 -20 -115 -12 0 -16 20 -18 113 l-3 112 -29 0 c-29 0 -45 12 -33 24 3 3 44 6 91 6 62 0 83 -3 79 -12z m584 -9 c17 -17 20 -29 16 -63 -4 -27 -1 -47 9 -60 21 -30 17 -64 -12 -91 -23 -22 -37 -25 -95 -25 l-69 0 0 130 0 130 65 0 c53 0 69 -4 86 -21z m229 -29 c18 -27 33 -50 35 -50 1 0 16 23 33 50 17 28 36 50 42 50 15 0 12 -19 -9 -48 -10 -15 -25 -41 -34 -58 -15 -30 -15 -32 23 -87 22 -31 35 -59 30 -62 -15 -9 -27 2 -56 51 -14 24 -29 44 -32 44 -4 0 -22 -23 -40 -50 -30 -47 -52 -63 -52 -40 0 6 16 35 36 64 36 54 36 54 18 88 -9 18 -25 45 -35 60 -23 31 -23 38 -5 38 8 0 28 -22 46 -50z m225 -78 c0 -166 -19 -162 -23 4 -2 99 0 125 10 122 10 -4 13 -36 13 -126z m245 118 c0 -10 -7 -12 -45 -14 -18 -1 -20 -10 -25 -116 -4 -93 -8 -115 -20 -115 -12 0 -16 22 -20 115 -5 113 -5 115 -29 115 -13 0 -26 6 -28 13 -4 9 17 12 81 12 51 0 86 -4 86 -10z m118 -108 l3 -112 44 0 c33 0 45 -4 45 -15 0 -12 -13 -15 -60 -15 l-60 0 0 131 c0 100 3 130 13 127 8 -3 13 -38 15 -116z m350 106 c-3 -8 -27 -14 -62 -16 l-57 -3 3 -37 c3 -36 4 -37 52 -42 69 -7 72 -28 4 -32 l-53 -3 0 -40 0 -40 58 -5 c82 -7 71 -25 -15 -25 l-73 0 -3 114 c-1 63 0 121 2 128 7 18 150 19 144 1z"/>
<path d="M5507 3320 c-50 -25 -73 -54 -93 -120 -20 -67 -9 -143 31 -200 35 -50 67 -65 140 -65 52 0 68 5 97 27 116 88 98 310 -29 363 -47 20 -100 18 -146 -5z"/>
<path d="M6908 3326 c-72 -32 -108 -95 -108 -192 0 -128 63 -199 175 -199 52 0 67 4 98 28 47 36 68 76 74 146 6 65 -8 127 -38 165 -45 57 -137 81 -201 52z"/>
<path d="M3112 3243 l3 -78 62 -3 c56 -3 66 0 88 22 33 33 34 87 3 116 -17 16 -35 20 -90 20 l-69 0 3 -77z"/>
<path d="M3786 3169 c-20 -49 -34 -94 -31 -100 7 -10 138 -13 148 -3 5 6 -5 41 -33 109 -4 11 -13 35 -20 53 -7 17 -16 32 -20 32 -4 0 -24 -41 -44 -91z"/>
<path d="M4402 3322 c-8 -2 -12 -30 -12 -83 l0 -79 59 0 c78 0 113 26 113 84 0 53 -24 73 -93 78 -30 2 -60 3 -67 0z"/>
<path d="M3880 2420 c0 -49 1 -50 31 -50 45 0 69 16 69 48 0 38 -17 52 -62 52 l-38 0 0 -50z"/>
<path d="M4721 2394 c-12 -25 -18 -50 -15 -55 6 -10 67 -12 76 -3 7 7 -25 104 -34 104 -4 0 -16 -21 -27 -46z"/>
<path d="M5040 2426 c0 -25 3 -47 8 -49 18 -11 83 7 93 25 18 33 -13 68 -61 68 l-40 0 0 -44z"/>
<path d="M5952 2433 c3 -38 3 -38 47 -38 31 0 47 5 55 18 19 29 -4 52 -58 55 l-47 3 3 -38z"/>
<path d="M5954 2346 c-3 -8 -4 -27 -2 -43 3 -26 7 -28 49 -31 35 -2 49 2 64 18 16 18 17 23 5 45 -11 21 -20 25 -62 25 -33 0 -50 -5 -54 -14z"/>
</g>
</g>
  <g id="id1:id1" transform="matrix(1.25,0,0,1.25,0.0,0.0)"><g transform="translate(0.000000,409.600000) scale(0.040000,-0.040000)" fill="#f6fafc" stroke="none">
<path d="M4840 7468 c-217 -35 -366 -81 -545 -168 -336 -163 -595 -405 -783 -732 -26 -46 -54 -99 -62 -118 -7 -19 -17 -39 -22 -44 -4 -6 -8 -14 -8 -18 0 -4 136 -8 303 -8 l302 0 43 58 c80 108 197 219 317 299 144 96 287 152 493 193 68 13 329 13 390 0 26 -6 70 -15 97 -21 131 -28 325 -117 441 -202 98 -71 241 -218 303 -310 153 -228 214 -428 215 -707 0 -155 -6 -205 -36 -315 -93 -342 -321 -627 -621 -778 -51 -25 -104 -51 -119 -56 l-28 -11 0 -274 c0 -159 4 -277 9 -281 18 -11 228 66 366 135 294 146 566 400 729 680 81 140 171 365 197 490 38 186 41 222 41 410 1 216 -11 308 -64 495 -129 466 -496 903 -933 1114 -199 96 -315 131 -544 167 -104 16 -390 17 -481 2z"/>
<path d="M4083 6013 c-10 -3 -13 -46 -13 -164 l0 -159 415 0 c325 0 415 -3 415 -12 0 -14 -148 -252 -174 -280 -15 -16 -44 -18 -336 -18 l-320 0 0 -160 0 -160 220 0 c146 0 220 -4 220 -10 0 -6 -8 -23 -19 -38 -10 -15 -50 -76 -88 -137 -39 -60 -111 -173 -160 -250 -176 -273 -233 -366 -233 -375 0 -6 108 -10 289 -10 l289 0 23 38 c12 20 52 84 89 142 37 58 97 153 135 213 l68 107 309 0 308 0 0 160 0 160 -210 0 c-115 0 -210 3 -210 6 0 3 28 49 61 102 34 53 83 131 109 172 26 41 84 134 130 205 46 72 101 159 123 195 22 36 56 90 77 120 57 86 90 147 83 154 -7 7 -1582 7 -1600 -1z"/>
<path d="M5461 3438 c-65 -25 -127 -84 -161 -153 -21 -43 -24 -64 -24 -155 0 -126 19 -176 94 -244 66 -59 137 -80 241 -73 109 7 183 51 239 141 108 175 30 416 -156 486 -71 26 -162 26 -233 -2z m192 -113 c127 -53 145 -275 29 -363 -29 -22 -45 -27 -97 -27 -73 0 -105 15 -140 65 -40 57 -51 133 -31 200 20 66 43 95 93 120 46 23 99 25 146 5z"/>
<path d="M6177 3440 c-71 -27 -131 -81 -164 -148 -39 -80 -45 -201 -13 -286 26 -67 84 -132 152 -168 37 -19 57 -22 143 -22 110 0 150 13 209 64 57 51 77 107 74 208 -2 62 -7 87 -15 86 -7 -1 -65 -2 -128 -2 l-115 -2 0 -55 0 -55 59 0 c33 0 63 -5 66 -10 12 -19 -30 -84 -66 -103 -52 -28 -140 -18 -187 20 -57 46 -70 78 -71 163 -1 60 4 83 22 115 55 98 183 122 279 53 l30 -21 40 40 40 40 -28 27 c-77 72 -221 96 -327 56z"/>
<path d="M6854 3439 c-89 -34 -136 -86 -183 -202 -18 -46 -14 -169 9 -231 26 -69 86 -137 147 -167 41 -20 64 -23 148 -23 86 0 105 3 140 23 79 45 104 71 136 138 29 60 32 76 31 157 0 107 -22 169 -80 229 -88 91 -229 122 -348 76z m195 -119 c74 -37 107 -109 98 -211 -6 -70 -27 -110 -74 -146 -31 -24 -46 -28 -98 -28 -76 0 -125 29 -155 92 -24 51 -27 154 -6 204 39 93 148 134 235 89z"/>
<path d="M2980 3130 l0 -310 65 0 64 0 3 108 c3 107 3 107 29 110 23 3 34 -10 99 -107 l73 -111 73 0 c41 0 74 2 74 6 0 7 -74 116 -117 172 -40 53 -41 63 -4 83 15 9 41 33 57 54 25 34 28 45 28 109 -1 61 -5 78 -28 113 -46 70 -88 83 -266 83 l-150 0 0 -310z m288 170 c31 -29 30 -83 -3 -116 -22 -22 -32 -25 -88 -22 l-62 3 -3 78 -3 77 69 0 c55 0 73 -4 90 -20z"/>
<path d="M3760 3430 c0 -5 -11 -33 -24 -62 -14 -30 -34 -78 -46 -107 -11 -30 -30 -73 -40 -96 -10 -23 -28 -66 -40 -95 -12 -29 -29 -72 -39 -94 -44 -98 -61 -139 -61 -147 0 -14 126 -11 137 4 5 6 16 28 23 47 26 68 31 70 160 70 129 0 134 -2 160 -70 7 -19 18 -41 23 -47 11 -15 137 -18 137 -4 0 7 -11 35 -59 146 -5 11 -18 41 -30 67 -12 26 -21 50 -21 53 0 3 -10 27 -21 53 -12 26 -28 62 -35 80 -8 17 -21 49 -30 70 -9 20 -20 46 -24 57 -38 94 -28 85 -102 85 -38 0 -68 -4 -68 -10z m90 -202 c7 -18 16 -42 20 -53 28 -68 38 -103 33 -109 -10 -10 -141 -7 -148 3 -7 12 64 191 75 191 4 0 13 -15 20 -32z"/>
<path d="M4252 3133 l3 -308 65 0 65 0 3 108 c3 105 3 107 26 107 19 0 40 -23 101 -110 l78 -110 73 0 c41 0 74 3 74 8 -1 4 -36 56 -80 117 -59 82 -76 113 -68 122 6 7 16 13 22 13 14 0 54 43 74 77 6 13 12 52 12 88 0 87 -30 139 -102 176 -32 16 -60 19 -193 19 l-155 0 2 -307z m292 167 c28 -28 24 -89 -9 -117 -21 -18 -38 -23 -86 -23 l-59 0 0 79 c0 53 4 81 12 83 29 10 124 -5 142 -22z"/>
<path d="M4860 3130 l0 -310 178 2 177 3 0 55 0 55 -110 5 -110 5 -2 245 -1 245 -66 3 -66 3 0 -311z"/>
<path d="M2991 2474 c-12 -15 -21 -31 -21 -36 0 -26 27 -52 76 -74 52 -23 59 -31 54 -64 -5 -33 -64 -41 -105 -14 -22 15 -25 15 -25 1 0 -48 104 -64 145 -22 43 42 24 92 -43 121 -38 16 -72 42 -72 55 0 5 11 16 25 25 21 14 30 14 55 4 35 -14 49 -8 30 15 -8 9 -29 15 -55 15 -35 0 -48 -5 -64 -26z"/>
<path d="M3292 2373 c2 -90 7 -128 16 -131 9 -3 12 27 12 127 0 111 -2 131 -15 131 -13 0 -15 -18 -13 -127z"/>
<path d="M3486 2492 c-2 -4 -2 -63 1 -130 7 -150 26 -162 33 -21 l5 94 65 -98 c36 -53 71 -97 78 -97 9 0 12 33 12 130 0 109 -2 130 -15 130 -12 0 -15 -17 -15 -90 0 -49 -3 -90 -8 -90 -4 0 -34 40 -67 90 -55 83 -76 102 -89 82z"/>
<path d="M3852 2375 c2 -73 7 -126 13 -128 6 -1 11 19 13 46 l3 47 38 0 c56 0 91 31 91 80 0 54 -34 80 -107 80 l-54 0 3 -125z m116 83 c7 -7 12 -24 12 -40 0 -32 -24 -48 -69 -48 -30 0 -31 1 -31 50 l0 50 38 0 c21 0 43 -5 50 -12z"/>
<path d="M4116 2491 c-7 -11 20 -22 37 -15 26 10 36 -23 39 -127 4 -140 22 -132 26 11 3 108 3 110 27 110 32 0 56 10 49 21 -3 5 -43 9 -89 9 -46 0 -86 -4 -89 -9z"/>
<path d="M4445 2488 c-3 -8 -4 -66 -3 -129 2 -93 6 -114 18 -114 13 0 15 20 15 124 0 91 -3 125 -12 129 -7 2 -15 -3 -18 -10z"/>
<path d="M4720 2475 c-5 -14 -28 -70 -50 -124 -22 -53 -40 -100 -40 -104 0 -19 23 -3 42 28 22 38 17 37 129 26 4 -1 12 -14 19 -31 7 -16 19 -30 26 -30 16 0 18 13 5 38 -12 23 -33 72 -66 155 -29 71 -49 84 -65 42z m51 -85 c9 -27 14 -51 11 -54 -9 -9 -70 -7 -76 3 -7 10 31 101 42 101 4 0 14 -22 23 -50z"/>
<path d="M5009 2493 c-4 -24 1 -246 5 -250 13 -13 26 13 26 53 0 40 2 44 24 44 18 0 32 -13 56 -50 18 -27 38 -50 46 -50 20 0 18 10 -11 52 -14 20 -25 41 -25 46 0 5 11 19 25 32 33 31 33 73 0 105 -20 21 -34 25 -85 25 -33 0 -60 -3 -61 -7z m126 -47 c23 -35 6 -62 -42 -68 -21 -3 -41 -3 -45 -1 -5 2 -8 24 -8 49 l0 44 40 0 c31 0 43 -5 55 -24z"/>
<path d="M5317 2494 c-12 -12 4 -24 33 -24 l29 0 3 -112 c2 -93 6 -113 18 -113 12 0 16 22 20 115 l5 115 29 0 c16 0 31 6 33 13 4 9 -17 12 -79 12 -47 0 -88 -3 -91 -6z"/>
<path d="M5920 2370 l0 -130 69 0 c58 0 72 3 95 25 29 27 33 61 12 91 -10 13 -13 33 -9 60 8 63 -18 84 -102 84 l-65 0 0 -130z m134 78 c19 -31 -4 -53 -55 -53 -44 0 -44 0 -47 38 l-3 38 47 -3 c31 -2 51 -9 58 -20z m16 -113 c12 -22 11 -27 -5 -45 -15 -16 -29 -20 -64 -18 -42 3 -46 5 -49 31 -6 48 3 57 56 57 42 0 51 -4 62 -25z"/>
<path d="M6240 2494 c0 -3 8 -18 19 -32 10 -15 26 -42 35 -60 18 -34 18 -34 -18 -88 -20 -29 -36 -58 -36 -64 0 -23 22 -7 52 40 18 27 36 50 40 50 3 0 18 -20 32 -44 29 -49 41 -60 56 -51 5 3 -8 31 -30 62 -38 55 -38 57 -23 87 9 17 24 43 34 58 21 29 24 48 9 48 -6 0 -25 -22 -42 -50 -17 -27 -32 -50 -33 -50 -2 0 -17 23 -35 50 -18 28 -38 50 -46 50 -8 0 -14 -3 -14 -6z"/>
<path d="M6502 2376 c4 -166 23 -170 23 -4 0 90 -3 122 -13 126 -10 3 -12 -23 -10 -122z"/>
<path d="M6603 2488 c2 -7 15 -13 28 -13 24 0 24 -2 29 -115 4 -93 8 -115 20 -115 12 0 16 22 20 115 5 106 7 115 25 116 38 2 45 4 45 14 0 6 -35 10 -86 10 -64 0 -85 -3 -81 -12z"/>
<path d="M6860 2371 l0 -131 60 0 c47 0 60 3 60 15 0 11 -12 15 -45 15 l-44 0 -3 112 c-2 78 -7 113 -15 116 -10 3 -13 -27 -13 -127z"/>
<path d="M7094 2487 c-2 -7 -3 -65 -2 -128 l3 -114 73 0 c86 0 97 18 15 25 l-58 5 0 40 0 40 53 3 c68 4 65 25 -4 32 -48 5 -49 6 -52 42 l-3 37 57 3 c35 2 59 8 62 16 6 18 -137 17 -144 -1z"/>
</g>
</g>
</svg>
