<?xml version="1.0" ?>
<svg xmlns="http://www.w3.org/2000/svg" version="1.1" width="512" height="512">
  <defs/>
  <g>
    <path d="M 0.9995678067207336 256.0 L 0.9991471767425537 512.0 L 255.99998474121094 512.0 L 511.0007629394531 512.0 L 511.0003662109375 256.0 L 511.000732421875 0.9998815655708313 L 255.99998474121094 0.9999574422836304 L 0.9991349577903748 0.9998840093612671 L 0.9995678067207336 256.0" stroke-width="1.0" fill="rgb(35, 114, 189)" opacity="1.0"/>
    <path d="M 274.3854064941406 345.0279846191406 C 271.8714294433594 346.276611328125 270.7193298339844 347.72662353515625 271.6484069824219 351.0852355957031 C 270.6839904785156 354.42816162109375 271.23565673828125 358.23077392578125 273.22662353515625 361.07073974609375 C 273.16583251953125 365.451171875 274.69085693359375 366.22247314453125 278.41943359375 366.24285888671875 C 281.2550354003906 366.1236267089844 281.7655029296875 364.0855407714844 285.0778503417969 363.40130615234375 C 290.88958740234375 359.02679443359375 289.99017333984375 347.4458312988281 283.6360778808594 344.7674255371094 C 280.3298645019531 345.7020568847656 276.9090576171875 345.767333984375 274.3854064941406 345.0279846191406" stroke-width="1.0" fill="rgb(35, 114, 189)" opacity="1.0"/>
    <path d="M 344.4134216308594 344.7069091796875 C 340.8192443847656 346.3190612792969 339.037353515625 349.4949035644531 339.01031494140625 356.2627868652344 C 339.00994873046875 362.6860656738281 342.1622314453125 366.2413330078125 347.7732849121094 366.2443542480469 C 352.20928955078125 366.22332763671875 353.0006103515625 366.01458740234375 352.9351806640625 364.7113037109375 C 355.0840148925781 361.15234375 357.6492919921875 359.2858581542969 358.33575439453125 357.4306335449219 C 356.7979736328125 353.7740783691406 357.5946044921875 349.4188537597656 356.413818359375 347.3340759277344 C 354.110107421875 344.4901428222656 348.38330078125 343.27825927734375 344.4134216308594 344.7069091796875" stroke-width="1.0" fill="rgb(35, 114, 189)" opacity="1.0"/>
    <path d="M 154.70504760742188 350.090576171875 L 154.76698303222656 354.74261474609375 L 158.0085906982422 354.88836669921875 C 160.83277893066406 353.1326904296875 161.29730224609375 352.9580383300781 164.23509216308594 353.7730712890625 C 165.8800048828125 352.08355712890625 165.9259490966797 347.6015625 164.38079833984375 346.0274353027344 C 163.2928009033203 345.3815612792969 162.0048828125 345.23773193359375 159.04893493652344 345.0088195800781 L 156.40106201171875 345.0117492675781 L 154.70504760742188 350.090576171875" stroke-width="1.0" fill="rgb(35, 114, 189)" opacity="1.0"/>
    <path d="M 188.31704711914062 352.5904235839844 C 187.3501739501953 355.15728759765625 186.63133239746094 357.3714599609375 186.77423095703125 359.52325439453125 C 187.27333068847656 359.5557861328125 194.25022888183594 358.2344970703125 196.12950134277344 357.898681640625 C 196.37057495117188 357.5997619628906 195.84898376464844 355.8296813964844 194.4467010498047 352.3806457519531 C 192.37310791015625 353.5272521972656 191.89605712890625 352.38726806640625 191.53123474121094 351.52593994140625 C 191.41943359375 349.9244689941406 192.55999755859375 348.143798828125 190.5526580810547 348.0380859375 C 190.3250274658203 348.04595947265625 189.32687377929688 350.1038513183594 188.31704711914062 352.5904235839844" stroke-width="1.0" fill="rgb(35, 114, 189)" opacity="1.0"/>
    <path d="M 219.1951446533203 345.8958435058594 C 218.75112915039062 345.2076416015625 218.5384521484375 346.6754455566406 218.51727294921875 349.50115966796875 L 218.5672149658203 353.03521728515625 L 223.27850341796875 353.0209655761719 C 227.25033569335938 354.9521484375 228.91949462890625 353.626220703125 229.0872039794922 348.8974914550781 C 229.0692596435547 346.1977233886719 227.84640502929688 345.1885070800781 224.36949157714844 344.9130859375 C 221.8943328857422 346.7196960449219 220.28451538085938 346.6748962402344 219.1951446533203 345.8958435058594" stroke-width="1.0" fill="rgb(35, 114, 189)" opacity="1.0"/>
    <path d="M 193.0115966796875 391.83172607421875 C 193.0183563232422 394.2923278808594 193.0954132080078 392.9327697753906 196.30458068847656 394.4593811035156 C 197.14451599121094 394.458984375 198.05438232421875 391.9453430175781 198.2051544189453 390.1612854003906 C 199.9478759765625 388.25970458984375 199.0794677734375 387.53790283203125 196.76446533203125 387.5147705078125 L 193.0362091064453 387.538818359375 L 193.0115966796875 391.83172607421875" stroke-width="1.0" fill="rgb(35, 114, 189)" opacity="1.0"/>
    <path d="M 235.0778045654297 391.363037109375 C 234.48611450195312 392.65899658203125 234.19224548339844 393.9709167480469 234.36427307128906 394.12957763671875 C 236.02978515625 394.58062744140625 238.0057830810547 394.67376708984375 239.96566772460938 394.239013671875 C 238.5056610107422 395.7327880859375 236.8828125 390.91387939453125 236.4547119140625 390.187744140625 C 236.27134704589844 389.1164245605469 235.65122985839844 390.1404113769531 235.0778045654297 391.363037109375" stroke-width="1.0" fill="rgb(35, 114, 189)" opacity="1.0"/>
    <path d="M 251.02511596679688 391.256103515625 C 251.03895568847656 392.7663269042969 251.1807861328125 393.9373474121094 251.4346923828125 394.1187438964844 C 253.84823608398438 394.6219787597656 257.3367919921875 393.6863098144531 258.0104675292969 392.8380432128906 C 258.8592224121094 389.34539794921875 257.3152770996094 387.5826721191406 254.8064727783203 387.5242004394531 L 251.0376434326172 387.55316162109375 L 251.02511596679688 391.256103515625" stroke-width="1.0" fill="rgb(35, 114, 189)" opacity="1.0"/>
    <path d="M 296.6241455078125 391.2544860839844 C 296.78759765625 393.2137451171875 296.8078308105469 393.2330017089844 299.3171691894531 393.2447814941406 C 302.31268310546875 393.2295227050781 301.851318359375 392.9208984375 301.85162353515625 390.4000244140625 C 304.6167907714844 388.92193603515625 303.4775085449219 387.7599792480469 300.7744140625 387.60528564453125 L 298.3249816894531 387.486328125 L 296.6241455078125 391.2544860839844" stroke-width="1.0" fill="rgb(35, 114, 189)" opacity="1.0"/>
    <path d="M 296.7419738769531 393.747802734375 C 298.4344177246094 394.714599609375 298.4427795410156 396.0210266113281 296.6340026855469 397.7901916503906 C 296.775634765625 399.1169738769531 296.9982604980469 399.2276916503906 299.1589050292969 399.3886413574219 C 302.6829528808594 399.46673583984375 303.4479675292969 399.2727966308594 304.2353515625 398.4866027832031 C 303.72406005859375 397.46240234375 303.18939208984375 396.83746337890625 304.2576904296875 394.3686218261719 C 303.8450622558594 393.28857421875 303.2912902832031 393.15545654296875 299.8856506347656 393.1333923339844 C 297.88775634765625 393.0456848144531 296.99163818359375 393.2884521484375 296.7419738769531 393.747802734375" stroke-width="1.0" fill="rgb(35, 114, 189)" opacity="1.0"/>
    <path d="M 242.91184997558594 139.58360290527344 C 230.1809844970703 139.3624725341797 222.71287536621094 141.655029296875 213.75538635253906 146.0027313232422 C 196.96029663085938 154.15823364257812 184.01036071777344 166.26063537597656 174.6054229736328 182.6082000732422 C 173.32150268554688 184.93954467773438 171.9240264892578 187.5956268310547 171.51910400390625 188.54017639160156 C 171.1892852783203 189.52870178222656 170.6907196044922 190.52157592773438 170.43373107910156 190.75103759765625 C 170.80018615722656 191.47056579589844 171.85977172851562 193.052001953125 171.91180419921875 193.562744140625 C 170.3299102783203 193.78627014160156 177.15135192871094 193.98416137695312 185.7906951904297 193.9963836669922 L 202.23495483398438 193.9963836669922 L 204.3245086669922 190.88323974609375 C 206.4173126220703 183.71571350097656 212.25877380371094 178.15716552734375 218.2568817138672 174.1553192138672 C 225.6484375 169.381591796875 232.63099670410156 166.5594482421875 243.0011749267578 166.3402557373047 C 247.88873291015625 163.9116668701172 260.8439636230469 163.8726043701172 262.5198059082031 166.4286651611328 C 265.4720764160156 164.85833740234375 267.73822021484375 165.28924560546875 269.210693359375 165.56752014160156 C 275.78118896484375 166.95816040039062 285.48681640625 171.40695190429688 291.29510498046875 175.65353393554688 C 296.19097900390625 179.20852661132812 303.3406982421875 186.56007385253906 306.4429016113281 191.15908813476562 C 314.05889892578125 204.05027770996094 317.1421813964844 212.62464904785156 317.198486328125 226.56007385253906 C 317.1885681152344 236.00535583496094 316.8668212890625 238.45196533203125 315.3949890136719 244.2366943359375 C 310.73907470703125 261.3299255371094 299.3310852050781 275.5804138183594 284.33673095703125 283.14178466796875 C 281.7376708984375 284.36883544921875 279.0363464355469 285.6434631347656 278.2771911621094 285.89593505859375 L 276.9555358886719 285.89739990234375 L 276.9898376464844 298.87255859375 C 276.9670715332031 307.5710144042969 275.2252197265625 313.8721008300781 275.46514892578125 314.2320861816406 C 278.28277587890625 314.7774963378906 288.8094787597656 310.9332275390625 295.74639892578125 307.4977722167969 C 310.4460754394531 300.19696044921875 324.04486083984375 287.4952087402344 332.1948547363281 273.4928894042969 C 336.23870849609375 266.4729919433594 340.7372131347656 255.2194366455078 342.03912353515625 248.9579620361328 C 343.92138671875 239.36192321777344 344.0924987792969 237.59994506835938 344.09869384765625 226.7332305908203 C 344.1444396972656 215.79376220703125 343.5414123535156 211.15025329589844 340.8973693847656 201.75489807128906 C 334.4480285644531 178.45252990722656 316.0979309082031 156.60223388671875 294.246337890625 146.05288696289062 C 284.2801208496094 141.2560577392578 278.4831848144531 139.50460815429688 267.0311584472656 137.70266723632812 C 261.7130432128906 136.9049530029297 247.33157348632812 136.85800170898438 242.91184997558594 139.58360290527344" stroke-width="1.0" fill="rgb(248, 252, 254)" opacity="0.99000096"/>
    <path d="M 203.1688232421875 212.34808349609375 C 202.6597900390625 210.5651092529297 202.50961303710938 212.7599639892578 202.50547790527344 218.8347930908203 L 202.5108642578125 228.49549865722656 L 224.2884521484375 228.49757385253906 C 241.24790954589844 228.44952392578125 245.9186248779297 226.66297912597656 245.99331665039062 227.12550354003906 C 245.9525909423828 229.68014526367188 236.66842651367188 239.80287170410156 237.23268127441406 243.05722045898438 C 236.4163055419922 241.9222869873047 233.8186798095703 242.0046844482422 218.84921264648438 242.0020294189453 L 202.5096435546875 242.02053833007812 L 202.50511169433594 251.00003051757812 L 202.51068115234375 258.0223083496094 L 214.8529052734375 258.0203552246094 C 222.56813049316406 258.0273132324219 226.4103240966797 258.2133483886719 226.4766845703125 258.51361083984375 C 226.38018798828125 260.1595458984375 224.2055206298828 259.79962158203125 223.6211700439453 260.5064697265625 C 225.00039672851562 263.075439453125 222.88644409179688 265.9820251464844 219.15921020507812 267.2643737792969 C 217.22567749023438 270.2893371582031 213.6481475830078 275.97332763671875 211.42227172851562 280.0977478027344 C 204.32960510253906 295.36920166015625 199.55015563964844 298.16619873046875 199.5106658935547 300.48822021484375 C 199.58482360839844 300.7912902832031 205.11346435546875 300.9834289550781 214.5508575439453 300.9927062988281 L 230.35108947753906 300.99365234375 L 229.5731964111328 297.1377868652344 C 231.836669921875 297.69171142578125 232.62844848632812 293.4685363769531 234.04083251953125 290.06280517578125 C 237.7449493408203 288.94317626953125 240.81520080566406 284.29608154296875 240.81895446777344 279.4542541503906 L 246.09664916992188 275.94158935546875 L 260.5999755859375 275.93463134765625 L 275.025146484375 275.862060546875 L 275.0219421386719 267.0 L 275.0285949707031 258.1044006347656 L 265.32403564453125 258.034912109375 C 259.2049560546875 259.9652099609375 254.31150817871094 259.8282775878906 254.06080627441406 259.6634521484375 C 255.8818817138672 259.3890380859375 257.3687744140625 257.2003173828125 259.0250244140625 254.56031799316406 C 260.7228088378906 251.90780639648438 263.147216796875 247.96926879882812 264.46868896484375 245.95169067382812 C 265.7782897949219 243.91610717773438 268.6826171875 239.272705078125 269.0213623046875 233.78273010253906 C 273.1506652832031 231.92042541503906 276.0315246582031 227.77093505859375 277.139892578125 225.98391723632812 C 278.2301940917969 224.16908264160156 279.9271240234375 221.46495056152344 280.97967529296875 219.9662322998047 C 283.8353271484375 215.67446899414062 285.4819641113281 212.6131591796875 285.1243591308594 212.29776000976562 C 283.4253234863281 211.9489288330078 205.7076873779297 211.94891357421875 203.1688232421875 212.34808349609375" stroke-width="1.0" fill="rgb(248, 252, 254)" opacity="0.99000096"/>
    <path d="M 272.1575927734375 339.1307678222656 C 268.8704528808594 340.4548034667969 265.71807861328125 343.3262023925781 264.00726318359375 346.7622375488281 C 262.98583984375 350.1727600097656 262.8085632324219 350.21429443359375 262.8014831542969 356.39825439453125 C 262.80914306640625 362.5256042480469 263.98370361328125 363.37396240234375 267.5101623535156 368.693359375 C 270.8179016113281 371.6426086425781 274.380859375 372.69268798828125 281.454345703125 372.34564208984375 C 286.9453125 371.98272705078125 290.6317443847656 369.7619934082031 293.47125244140625 365.2616271972656 C 298.84368896484375 354.5948181152344 294.98529052734375 342.5152587890625 285.68994140625 339.0059509277344 C 282.03045654296875 337.7177429199219 276.30291748046875 337.7294921875 272.1575927734375 339.1307678222656" stroke-width="1.0" fill="rgb(248, 252, 254)" opacity="0.99000096"/>
    <path d="M 307.89739990234375 339.0077209472656 C 306.2674255371094 342.3091125488281 303.2812805175781 345.0298156738281 299.6627502441406 346.5751647949219 C 297.7099609375 350.4662170410156 297.41265869140625 356.7721862792969 299.0103454589844 362.6718444824219 C 300.3165283203125 366.0309143066406 303.21710205078125 369.28192138671875 306.6347351074219 371.0682373046875 C 310.1610412597656 371.98388671875 309.82086181640625 372.1851501464844 315.63409423828125 372.19732666015625 C 321.16436767578125 372.1912841796875 323.206787109375 371.5307922363281 326.1921081542969 368.99261474609375 C 329.0351257324219 366.4180908203125 330.03955078125 363.59808349609375 329.8910217285156 358.48077392578125 C 329.7798767089844 353.5865478515625 329.5331726074219 352.2958679199219 329.1238098144531 352.3202209472656 C 327.4912414550781 352.3890075683594 324.5972900390625 352.4203186035156 321.05035400390625 352.40533447265625 L 315.0140380859375 352.508056640625 L 315.00701904296875 356.25 L 315.0173034667969 359.9837646484375 L 318.38287353515625 359.98321533203125 C 319.8231506347656 359.9598388671875 321.32537841796875 360.20648193359375 323.2037658691406 360.4330749511719 C 323.82861328125 361.41790771484375 321.7319641113281 364.6749572753906 319.89892578125 365.6276550292969 C 315.5613708496094 367.0365905761719 311.005126953125 366.5377197265625 308.6103820800781 364.64227294921875 C 305.76422119140625 362.32763671875 305.1178894042969 360.7108154296875 305.0607604980469 356.3628845214844 C 305.02923583984375 351.7066345214844 305.28692626953125 350.4654846191406 306.16094970703125 348.7613525390625 C 308.91754150390625 343.87054443359375 315.3218688964844 344.63519287109375 320.11566162109375 348.0933837890625 L 321.7585754394531 347.1856689453125 L 323.6535949707031 345.2036437988281 L 327.51922607421875 343.2043762207031 L 324.60357666015625 341.8367004394531 C 322.2909851074219 338.2091064453125 315.0882263183594 337.0078430175781 307.89739990234375 339.0077209472656" stroke-width="1.0" fill="rgb(248, 252, 254)" opacity="0.99000096"/>
    <path d="M 341.7195739746094 339.0552062988281 C 337.2659606933594 340.7652893066406 334.9095458984375 343.3641052246094 332.5549011230469 349.1601257324219 C 331.98492431640625 352.234619140625 333.6912536621094 357.9314270019531 333.0122375488281 362.68145751953125 C 334.3113098144531 366.1333923339844 337.3200988769531 369.52716064453125 340.3804931640625 371.0315856933594 C 342.5048522949219 372.0263671875 343.7374572753906 372.1888732910156 349.0437316894531 372.19744873046875 C 353.7027893066406 372.1897888183594 353.2136535644531 371.9869384765625 356.7305908203125 371.037353515625 C 360.674072265625 368.7789611816406 361.9342346191406 367.4762268066406 363.545166015625 364.1405944824219 C 364.977783203125 361.0598449707031 365.1363220214844 360.2045593261719 365.09716796875 354.3621826171875 C 365.0928039550781 348.9801330566406 363.99102783203125 345.8695068359375 361.0953369140625 342.8541259765625 C 356.68402099609375 338.30596923828125 349.6019592285156 336.7562561035156 341.7195739746094 339.0552062988281" stroke-width="1.0" fill="rgb(248, 252, 254)" opacity="0.99000096"/>
    <path d="M 148.0009765625 355.5 L 148.0019073486328 370.07586669921875 L 152.24998474121094 370.0376892089844 L 156.41957092285156 371.2315368652344 L 154.60638427734375 364.7052001953125 C 154.760986328125 359.3124694824219 154.76815795898438 359.29034423828125 156.15538024902344 359.1247253417969 C 159.16656494140625 358.98358154296875 159.49652099609375 359.6885986328125 161.0078125 366.4380187988281 L 166.632568359375 370.01873779296875 L 169.56045532226562 370.0241394042969 C 172.15545654296875 371.9483642578125 173.9208221435547 371.88385009765625 173.9928741455078 369.814453125 C 173.98585510253906 369.3735046386719 170.05545043945312 364.63885498046875 168.1323699951172 361.1210632324219 C 164.22409057617188 358.6612243652344 164.15811157226562 359.72320556640625 167.82667541503906 358.909912109375 C 168.61175537109375 358.4028015136719 169.9726104736328 357.26971435546875 170.792724609375 356.2407531738281 C 171.99880981445312 354.4190368652344 172.17356872558594 353.6293640136719 172.1914520263672 348.9849853515625 C 172.13760375976562 345.85430908203125 171.92343139648438 345.0306091308594 170.7847442626953 343.1639709472656 C 168.47903442382812 339.657958984375 166.37118530273438 339.00567626953125 157.4396514892578 339.0024108886719 L 148.0018768310547 339.0036926269531 L 148.0009765625 355.5" stroke-width="1.0" fill="rgb(248, 252, 254)" opacity="0.99000096"/>
    <path d="M 187.1468048095703 339.55352783203125 C 187.03741455078125 339.83624267578125 186.4785614013672 341.21868896484375 185.8201141357422 342.6454772949219 C 185.14431762695312 344.1953125 184.15936279296875 346.6294250488281 183.53358459472656 348.0272216796875 C 182.9995880126953 349.5614929199219 182.0890655517578 351.7911682128906 181.55355834960938 352.8691101074219 C 181.0394287109375 353.98809814453125 180.185302734375 356.23095703125 179.51832580566406 357.5431823730469 C 178.9681854248047 359.1000671386719 178.0843048095703 361.17803955078125 177.57290649414062 362.2522888183594 C 175.38462829589844 367.18096923828125 174.5259246826172 369.2219543457031 174.51380920410156 371.2388610839844 C 174.66004943847656 370.2926025390625 181.11129760742188 370.127197265625 183.3196258544922 371.212646484375 C 183.5601348876953 370.97845458984375 184.10714721679688 369.8643798828125 184.4751739501953 368.9271545410156 C 185.4183807373047 363.7116394042969 184.20748901367188 365.4300537109375 192.1837158203125 365.4931640625 C 198.88763427734375 363.6272277832031 199.13870239257812 363.6357421875 198.52713012695312 368.8147888183594 C 198.94046020507812 369.7616882324219 199.52476501464844 370.8586120605469 199.67398071289062 371.33544921875 C 200.31492614746094 372.0474853515625 208.13934326171875 370.38262939453125 208.48004150390625 371.422607421875 C 208.45703125 369.3201599121094 207.8863067626953 367.9491882324219 205.16323852539062 362.9144287109375 C 205.08786010742188 362.0783386230469 204.3437042236328 360.70953369140625 202.13059997558594 360.7441101074219 C 203.35458374023438 357.8229064941406 202.93881225585938 356.55267333984375 202.9597930908203 356.3566589355469 C 202.9695587158203 356.17279052734375 202.4784393310547 354.9510803222656 201.61380004882812 354.8923645019531 C 199.38722229003906 354.2198791503906 198.59523010253906 352.40240478515625 200.16995239257812 349.6670837402344 C 199.76788330078125 348.8214111328125 199.07383728027344 347.31158447265625 198.6424102783203 346.2203674316406 C 198.2174835205078 345.1723327636719 197.63937377929688 343.93011474609375 197.4907684326172 343.2705078125 C 195.58042907714844 338.57476806640625 196.05126953125 339.01708984375 192.16964721679688 339.0079345703125 C 188.68063354492188 339.0268249511719 187.13754272460938 339.2303771972656 187.1468048095703 339.55352783203125" stroke-width="1.0" fill="rgb(248, 252, 254)" opacity="0.99000096"/>
    <path d="M 211.6060028076172 355.8836364746094 L 211.76011657714844 371.7387390136719 L 215.99998474121094 371.7445983886719 L 220.2365264892578 371.7362365722656 L 218.42686462402344 364.5194091796875 C 218.56198120117188 359.17108154296875 218.5679168701172 359.0650939941406 221.6620330810547 359.014404296875 C 222.6374053955078 359.0110778808594 223.68788146972656 360.1630554199219 226.7261962890625 364.5283203125 L 228.6744384765625 371.9582214355469 L 232.92117309570312 370.0216979980469 C 235.12872314453125 370.06475830078125 237.46075439453125 370.263427734375 237.9436492919922 369.7460632324219 C 237.9086151123047 369.4610290527344 235.7488250732422 367.70513916015625 232.572265625 364.5423583984375 C 229.1441192626953 360.0536804199219 228.21856689453125 360.0491027832031 228.6197052001953 359.48095703125 C 230.06155395507812 359.023681640625 231.18519592285156 358.9018859863281 231.66159057617188 358.97283935546875 C 232.38465881347656 358.9836730957031 234.38973999023438 356.83807373046875 235.38803100585938 355.1333312988281 C 235.54934692382812 354.1904296875 234.2496795654297 351.42779541015625 235.98214721679688 348.81707763671875 C 235.9857635498047 344.4294738769531 234.48623657226562 341.8157043457031 230.88906860351562 339.9572448730469 C 229.11404418945312 339.2231750488281 227.38995361328125 339.1184997558594 220.3681182861328 339.0030212402344 L 213.48561096191406 339.00396728515625 L 211.6060028076172 355.8836364746094" stroke-width="1.0" fill="rgb(248, 252, 254)" opacity="0.99000096"/>
    <path d="M 242.0025634765625 355.5 L 242.005126953125 370.0282897949219 L 252.37306213378906 371.8858947753906 L 261.71844482421875 371.7430419921875 L 259.7604064941406 368.0 L 261.735595703125 364.2576599121094 L 255.31849670410156 364.3819580078125 L 248.7571563720703 365.7296142578125 L 248.65643310546875 353.0479736328125 L 250.59255981445312 339.2623291015625 L 246.9837646484375 339.12060546875 L 242.00421142578125 338.968994140625 L 242.0025634765625 355.5" stroke-width="1.0" fill="rgb(248, 252, 254)" opacity="0.99000096"/>
    <path d="M 148.6356964111328 387.421875 C 149.78921508789062 389.750732421875 149.41619873046875 390.6923828125 149.43402099609375 391.0302429199219 C 147.5300750732422 392.3739013671875 148.8729248046875 393.6808776855469 151.3373260498047 394.7704772949219 C 154.01510620117188 395.8752746582031 156.13137817382812 396.236083984375 155.98387145996094 397.9305725097656 C 155.5554656982422 399.509765625 152.6890411376953 398.1719055175781 150.72109985351562 396.7153625488281 C 149.44789123535156 396.02215576171875 147.7134552001953 396.0690612792969 147.5250701904297 396.95587158203125 C 149.27786254882812 399.2210693359375 154.6542205810547 401.8234558105469 156.74215698242188 399.7420654296875 C 158.88662719726562 395.8218994140625 157.9349822998047 393.1748962402344 154.5801544189453 391.7147521972656 C 150.74789428710938 392.8655090332031 149.06918334960938 391.554931640625 150.89120483398438 390.82159423828125 C 150.88827514648438 390.5751953125 151.4446563720703 390.053466796875 152.21824645996094 389.68035888671875 C 153.1469268798828 388.951904296875 151.91200256347656 388.96295166015625 153.0680694580078 389.48089599609375 C 156.5796356201172 390.1214904785156 157.3784942626953 389.73236083984375 156.4691925048828 386.7828063964844 C 156.02650451660156 386.32440185546875 154.96397399902344 386.01953125 153.6181182861328 386.0284729003906 C 151.73336791992188 387.9082336425781 151.0093536376953 388.11602783203125 148.6356964111328 387.421875" stroke-width="1.0" fill="rgb(248, 252, 254)" opacity="0.99000096"/>
    <path d="M 163.6031951904297 394.2637634277344 C 163.70555114746094 398.7796325683594 163.96080017089844 400.5959167480469 164.43809509277344 398.9504089355469 C 164.88462829589844 399.1839904785156 165.02865600585938 397.8006286621094 165.0387725830078 392.881103515625 C 166.97360229492188 387.2731628417969 166.859130859375 386.1603088378906 164.32080078125 386.03997802734375 C 163.62380981445312 386.07623291015625 163.51751708984375 387.06842041015625 163.6031951904297 394.2637634277344" stroke-width="1.0" fill="rgb(248, 252, 254)" opacity="0.99000096"/>
    <path d="M 175.2757568359375 386.4665832519531 C 175.16233825683594 387.9860534667969 173.35601806640625 391.0303649902344 173.35348510742188 394.8700256347656 C 173.7098846435547 402.3783874511719 176.57606506347656 402.9775085449219 175.00717163085938 395.86370849609375 L 175.26095581054688 389.33624267578125 L 178.5196533203125 396.12298583984375 C 180.32064819335938 398.7742614746094 182.07032775878906 400.9753723144531 182.42822265625 400.7809143066406 C 182.94093322753906 399.1652526855469 184.8507080078125 397.79412841796875 183.0220947265625 393.78411865234375 C 183.0505828857422 387.5480651855469 184.4771728515625 386.1683349609375 182.36038208007812 386.0429382324219 C 181.68505859375 386.0862731933594 181.53346252441406 387.01007080078125 181.53285217285156 391.3245544433594 C 183.47952270507812 394.7890625 183.33493041992188 396.89898681640625 183.07069396972656 396.9519348144531 C 182.74502563476562 395.2762451171875 181.37136840820312 393.0412902832031 179.74453735351562 390.5076599121094 C 176.984375 386.3663635253906 175.9261016845703 385.4205627441406 175.2757568359375 386.4665832519531" stroke-width="1.0" fill="rgb(248, 252, 254)" opacity="0.99000096"/>
    <path d="M 191.60272216796875 394.179443359375 C 191.70712280273438 397.81591796875 191.95986938476562 400.4800109863281 192.27520751953125 400.6147155761719 C 194.52484130859375 400.6297302246094 194.7800750732422 399.6199035644531 193.05133056640625 398.1175842285156 L 193.1348419189453 394.0542907714844 L 196.89193725585938 395.5425109863281 C 199.7183380126953 395.9809265136719 201.4776153564453 394.421630859375 201.4941864013672 390.0367431640625 C 201.49021911621094 387.3115234375 199.78480529785156 386.01068115234375 196.10842895507812 386.0296936035156 L 191.45896911621094 386.1365661621094 L 191.60272216796875 394.179443359375" stroke-width="1.0" fill="rgb(248, 252, 254)" opacity="0.99000096"/>
    <path d="M 204.82688903808594 386.5906677246094 C 204.52210998535156 388.46929931640625 206.34490966796875 387.7629089355469 208.60855102539062 387.2782897949219 C 209.91806030273438 386.74072265625 208.4957733154297 388.4369201660156 208.6024627685547 395.5223083496094 C 208.8086395263672 402.5267028808594 211.68190002441406 402.1231994628906 211.88819885253906 394.947265625 C 211.4618682861328 387.77447509765625 210.2626190185547 387.5526123046875 211.34930419921875 387.5174560546875 C 214.73020935058594 387.7274169921875 216.0073699951172 388.94024658203125 215.68153381347656 386.4791564941406 C 215.4251251220703 386.2529296875 212.9996795654297 387.9019470214844 210.24746704101562 387.971435546875 C 208.42845153808594 387.9284973144531 205.65972900390625 388.0848693847656 204.82688903808594 386.5906677246094" stroke-width="1.0" fill="rgb(248, 252, 254)" opacity="0.99000096"/>
    <path d="M 221.27804565429688 386.6634521484375 C 222.69395446777344 387.5224609375 222.88648986816406 391.0024108886719 221.17337036132812 394.8291320800781 C 221.21510314941406 399.6307373046875 221.41293334960938 400.71380615234375 222.06141662597656 400.736572265625 C 224.6284637451172 400.6936950683594 224.72962951660156 399.61700439453125 224.72906494140625 394.00726318359375 C 224.70547485351562 388.1399230957031 224.58462524414062 386.36175537109375 224.1326141357422 386.11962890625 C 221.9497528076172 386.0555419921875 221.48629760742188 386.31805419921875 221.27804565429688 386.6634521484375" stroke-width="1.0" fill="rgb(248, 252, 254)" opacity="0.99000096"/>
    <path d="M 235.02975463867188 387.2789611816406 C 234.79908752441406 388.064453125 233.648193359375 390.86102294921875 232.51571655273438 393.4877014160156 C 231.4568328857422 396.23297119140625 230.5607452392578 398.6044006347656 230.551025390625 398.9718322753906 C 232.30519104003906 401.4709167480469 233.5941162109375 400.73748779296875 234.56362915039062 399.1751403808594 C 233.7361297607422 395.3952331542969 233.51568603515625 397.3688049316406 239.1329803466797 397.942138671875 C 241.10650634765625 396.2043151855469 241.55844116210938 396.80859375 241.83206176757812 399.09185791015625 C 240.38653564453125 400.2544860839844 240.9949493408203 400.9436950683594 241.35818481445312 399.04547119140625 C 242.1527557373047 399.0787353515625 242.28768920898438 398.4877624511719 241.5933074951172 398.9853210449219 C 240.98240661621094 397.8803405761719 239.93028259277344 395.4305114746094 240.23483276367188 389.37359619140625 C 238.7836456298828 385.8175048828125 237.7523651123047 385.17120361328125 235.02975463867188 387.2789611816406" stroke-width="1.0" fill="rgb(248, 252, 254)" opacity="0.99000096"/>
    <path d="M 249.45870971679688 386.4337463378906 C 249.25608825683594 389.2823181152344 249.50498962402344 400.52691650390625 249.70571899414062 400.8249816894531 C 252.29209899902344 401.44775390625 252.77529907226562 400.1060485839844 251.0203094482422 396.4374084472656 C 251.04127502441406 394.2825012207031 251.1500701904297 394.0477294921875 254.07217407226562 394.0213623046875 C 255.07228088378906 394.0218811035156 255.76405334472656 394.6784362792969 255.0786590576172 398.3493957519531 C 255.93179321289062 399.81658935546875 256.9253845214844 400.97564697265625 257.3538513183594 400.9744873046875 C 260.2083740234375 400.7054748535156 260.1308288574219 398.6900329589844 258.73114013671875 396.43017578125 C 258.017578125 395.4529724121094 257.4413757324219 394.4521789550781 255.80322265625 394.19647216796875 C 255.5616455078125 393.94000244140625 256.169921875 393.3315124511719 258.6113586425781 394.4300231933594 C 258.4583740234375 391.4066467285156 258.4891357421875 389.0346374511719 258.6790466308594 387.29229736328125 C 257.6644592285156 386.23016357421875 256.9513854980469 386.0320739746094 254.2663116455078 387.9240417480469 C 251.79684448242188 387.8753356933594 249.82521057128906 386.4049377441406 249.45870971679688 386.4337463378906" stroke-width="1.0" fill="rgb(248, 252, 254)" opacity="0.99000096"/>
    <path d="M 266.4239807128906 388.2361755371094 C 264.37457275390625 388.8451843261719 265.1255798339844 389.4714050292969 266.60845947265625 387.7405090332031 L 269.93914794921875 387.5428771972656 L 270.094482421875 393.3229064941406 C 268.2600402832031 399.64520263671875 268.4217224121094 400.7069396972656 269.1432800292969 400.73394775390625 C 271.5843200683594 400.69610595703125 271.7853698730469 399.570556640625 270.02557373046875 394.5362854003906 L 270.2680358886719 389.19830322265625 L 273.5751037597656 389.2318115234375 C 274.43194580078125 389.2279357910156 275.19976806640625 388.92315673828125 275.33087158203125 387.9172668457031 C 275.49713134765625 386.17724609375 274.37371826171875 386.05474853515625 271.0008239746094 387.95709228515625 C 268.5472106933594 387.9397888183594 266.60894775390625 388.091064453125 266.4239807128906 388.2361755371094" stroke-width="1.0" fill="rgb(248, 252, 254)" opacity="0.99000096"/>
    <path d="M 295.017578125 393.5 L 295.0372314453125 399.03350830078125 L 299.1475830078125 399.01611328125 C 303.1058044433594 399.0896911621094 303.9699401855469 400.78863525390625 305.1852111816406 399.7336730957031 C 306.6249694824219 398.33404541015625 306.82257080078125 395.2530517578125 303.85040283203125 395.1119689941406 C 303.315673828125 394.4943542480469 303.1736145019531 393.4494934082031 305.3421630859375 390.419921875 C 305.7345275878906 387.09454345703125 304.4106750488281 386.0513916015625 300.0942687988281 387.63665771484375 L 295.0251159667969 387.9200134277344 L 295.017578125 393.5" stroke-width="1.0" fill="rgb(248, 252, 254)" opacity="0.99000096"/>
    <path d="M 312.9269714355469 386.8470764160156 C 312.90869140625 386.6174621582031 313.28692626953125 387.3799743652344 311.9820556640625 389.8488464355469 C 312.47662353515625 390.60699462890625 313.2922668457031 391.930419921875 315.5215148925781 392.7471008300781 C 316.57220458984375 393.8342590332031 316.56085205078125 394.24591064453125 312.87237548828125 395.37030029296875 C 313.7472839355469 398.65753173828125 312.9613342285156 400.12481689453125 312.9770202636719 400.25860595703125 C 312.9554443359375 401.5411682128906 314.0765380859375 400.8204650878906 315.5832214355469 398.47869873046875 C 316.4454040527344 397.0739440917969 317.1249084472656 395.5052490234375 315.8923034667969 394.184326171875 C 315.9253234863281 395.74786376953125 316.6105651855469 396.84698486328125 319.14068603515625 396.3061218261719 C 319.1272277832031 400.41802978515625 319.4646911621094 401.0816345214844 321.9595031738281 400.6581726074219 C 322.1915283203125 398.8539123535156 321.507568359375 397.38671875 318.7571105957031 396.78717041015625 C 316.649169921875 394.52093505859375 316.6315002441406 393.2383728027344 317.4101867675781 392.18389892578125 C 319.7306213378906 392.336181640625 320.4757080078125 391.02880859375 321.019775390625 390.34478759765625 C 322.06610107421875 388.857421875 322.2019348144531 386.82855224609375 319.9198913574219 386.0397644042969 C 319.24871826171875 386.0510559082031 318.28662109375 387.1466979980469 317.4083557128906 388.51300048828125 C 316.5943298339844 389.9171447753906 315.881103515625 391.1173095703125 316.4787902832031 391.119384765625 C 317.55999755859375 391.123291015625 316.8428039550781 389.932373046875 315.7997131347656 388.6866760253906 C 315.0498352050781 387.14459228515625 314.0737609863281 386.0253601074219 313.6540832519531 386.128662109375 C 313.0103454589844 387.88623046875 312.76019287109375 387.99420166015625 312.9269714355469 386.8470764160156" stroke-width="1.0" fill="rgb(248, 252, 254)" opacity="0.99000096"/>
    <path d="M 324.1058044433594 394.1632080078125 C 324.31011962890625 402.4798583984375 327.2439880371094 402.67987060546875 327.24859619140625 394.358642578125 C 327.2447204589844 387.9640197753906 327.09307861328125 386.33453369140625 326.5815124511719 386.1122131347656 C 324.1211242675781 385.9984130859375 324.0482177734375 387.3871154785156 324.1058044433594 394.1632080078125" stroke-width="1.0" fill="rgb(248, 252, 254)" opacity="0.99000096"/>
    <path d="M 329.167236328125 388.3252258300781 C 329.2925720214844 388.9196472167969 329.97314453125 389.21441650390625 332.51336669921875 387.4799499511719 C 333.73907470703125 387.2797546386719 333.74273681640625 387.38916015625 333.9914245605469 393.0898742675781 C 332.2357177734375 399.4949645996094 332.434326171875 400.6700744628906 334.9378356933594 400.7334899902344 C 335.5652160644531 400.70452880859375 333.8578186035156 399.48095703125 334.0072937011719 393.0987243652344 C 334.2634582519531 387.78143310546875 334.36981201171875 387.3309326171875 335.3710632324219 389.18951416015625 C 339.05810546875 389.08233642578125 339.42822265625 388.9664001464844 339.4677429199219 386.5821533203125 C 339.369384765625 386.2397155761719 337.46307373046875 386.1250915527344 333.7000732421875 387.9361267089844 C 330.122314453125 386.05078125 329.0048522949219 386.1753845214844 329.167236328125 388.3252258300781" stroke-width="1.0" fill="rgb(248, 252, 254)" opacity="0.99000096"/>
    <path d="M 342.01043701171875 392.8579406738281 L 342.01214599609375 399.0631103515625 L 346.6544494628906 399.3083190917969 C 349.1805114746094 400.9629211425781 349.8831787109375 400.8021240234375 349.93157958984375 400.1607360839844 C 348.389404296875 399.557373046875 347.7361755371094 399.40252685546875 346.2660827636719 399.461181640625 L 343.5763244628906 399.4031982421875 L 345.396728515625 391.9616394042969 C 345.295166015625 388.04754638671875 345.04290771484375 386.29107666015625 344.6185302734375 386.1178894042969 C 342.1677551269531 386.0061950683594 342.0242004394531 387.5777282714844 342.01043701171875 392.8579406738281" stroke-width="1.0" fill="rgb(248, 252, 254)" opacity="0.99000096"/>
    <path d="M 353.7098083496094 386.6611022949219 C 353.61456298828125 387.2887268066406 353.5645751953125 390.4446105957031 353.60760498046875 394.7350158691406 L 353.7545471191406 400.71038818359375 L 359.3515319824219 400.7411193847656 C 363.6756591796875 400.73687744140625 364.2243347167969 399.796875 360.0594177246094 399.48223876953125 L 355.2674865722656 399.2420959472656 L 355.2564392089844 396.25 L 355.26263427734375 393.2716369628906 L 359.77032470703125 393.2148742675781 C 363.2587585449219 392.9833984375 363.1163330078125 391.8838195800781 359.3426208496094 393.45697021484375 C 355.3308410644531 393.23193359375 355.2724304199219 393.1736145019531 356.947265625 391.31787109375 L 356.8620300292969 387.5862121582031 L 358.9955139160156 387.42938232421875 C 361.4410400390625 389.2663269042969 362.6957702636719 388.9742126464844 362.88653564453125 386.6236572265625 C 363.12567138671875 385.713623046875 354.1512756347656 385.7632141113281 353.7098083496094 386.6611022949219" stroke-width="1.0" fill="rgb(248, 252, 254)" opacity="0.99000096"/>
  </g>
</svg>
